#N canvas 0 48 1276 972 10;
#X declare -lib mrpeach;
#X obj 15 66 vsl 32 128 0 0.999 0 0 empty empty Sine 0 -9 0 10 -4033
-1793 -1 12700 1;
#X obj 212 363 packOSC;
#X obj 212 387 udpsend;
#X obj 15 21 import mrpeach;
#X msg 391 392 disconnect;
#X floatatom 15 204 5 0 0 0 - - -;
#X obj 89 67 vsl 32 128 0.01 0.999 1 0 empty empty Square 0 -9 0 10
-4034 -110593 -1 0 1;
#X floatatom 89 204 5 0 0 0 - - -;
#X obj 126 67 vsl 32 128 0 0.9 0 0 empty empty Noise 0 -9 0 10 -262081
-145409 -1 0 1;
#X floatatom 126 204 5 0 0 0 - - -;
#X obj 52 66 vsl 32 128 0 0.999 0 0 empty empty Saw 0 -9 0 10 -4033
-1793 -1 0 1;
#X floatatom 52 204 5 0 0 0 - - -;
#X msg 15 306 send /SineAmpl \$1;
#X msg 52 280 send /SawAmpl \$1;
#X msg 89 256 send /SquareAmpl \$1;
#X msg 126 230 send /NoiseAmpl \$1;
#X obj 212 67 vsl 32 128 0.001 0.9 1 0 empty empty LFO_Q 0 -9 0 10
-258113 -110593 -1 0 1;
#X floatatom 212 203 5 0 0 0 - - -;
#X obj 249 67 vsl 32 128 0.5 6.5 1 0 empty empty Filter_Type 0 -9 0
10 -4032 -110593 -1 0 1;
#X msg 212 319 send /LFO_Q \$1;
#X floatatom 249 203 5 0 0 0 - - -;
#X msg 249 296 send /Filter_Type \$1;
#X obj 320 67 vsl 32 128 0.2 50 1 0 empty empty Filter_Gain 0 -9 0
10 -159808 -110593 -1 0 1;
#X floatatom 320 203 5 0 0 0 - - -;
#X msg 320 272 send /Filter_Gain \$1;
#X obj 388 67 vsl 32 128 0.1 10 1 0 empty empty LFO_Frequency 0 -9
0 10 -191407 -110593 -1 0 1;
#X msg 388 248 send /LFO_Freq \$1;
#X floatatom 388 203 5 0 0 0 - - -;
#X obj 577 68 vradio 30 1 0 4 empty empty LFO_Type 0 -8 0 20 -262144
-1 -1 0;
#X floatatom 469 203 5 0 0 0 - - -;
#X msg 469 225 send /LFO_Type \$1;
#X obj 469 67 vsl 32 128 0.03 3 1 0 empty empty LFO_Type 0 -9 0 20
-261682 -110593 -1 0 1;
#X msg 392 355 connect 192.168.23.1 50000;
#X msg 395 321 connect localhost 50000;
#X connect 0 0 5 0;
#X connect 1 0 2 0;
#X connect 4 0 2 0;
#X connect 5 0 12 0;
#X connect 6 0 7 0;
#X connect 7 0 14 0;
#X connect 8 0 9 0;
#X connect 9 0 15 0;
#X connect 10 0 11 0;
#X connect 11 0 13 0;
#X connect 12 0 1 0;
#X connect 13 0 1 0;
#X connect 14 0 1 0;
#X connect 15 0 1 0;
#X connect 16 0 17 0;
#X connect 17 0 19 0;
#X connect 18 0 20 0;
#X connect 19 0 1 0;
#X connect 20 0 21 0;
#X connect 21 0 1 0;
#X connect 22 0 23 0;
#X connect 23 0 24 0;
#X connect 24 0 1 0;
#X connect 25 0 27 0;
#X connect 26 0 1 0;
#X connect 27 0 26 0;
#X connect 28 0 29 0;
#X connect 29 0 30 0;
#X connect 30 0 1 0;
#X connect 31 0 29 0;
#X connect 32 0 2 0;
#X connect 33 0 2 0;
