#N canvas 0 48 679 716 10;
#X declare -lib mrpeach;
#X obj 15 -3 vsl 32 512 10 500 0 0 empty empty OSC01_Frequency 0 -9
0 10 -4033 -1985 -1 12000 1;
#X obj 54 14 vsl 32 512 0 0.5 0 0 empty empty OSC01_Amplitude 0 -9
0 10 -4033 -1793 -1 24300 1;
#X obj 485 644 packOSC;
#X obj 496 99 udpsend;
#X obj 563 -36 import mrpeach;
#X msg 497 26 connect localhost 50000;
#X msg 497 61 disconnect;
#X floatatom 18 533 5 0 0 0 - - -;
#X floatatom 55 536 5 0 0 0 - - -;
#X obj 303 15 vsl 32 512 1 16 1 0 empty empty Harmonics 0 -9 0 10 -258049
-110593 -1 18600 1;
#X floatatom 244 569 5 0 0 0 - - -;
#X msg 265 604 send /harm \$1;
#X obj 356 5 vsl 32 512 0 0.9 0 0 empty empty Noise_Level 0 -9 0 10
-262081 -145409 -1 0 1;
#X floatatom 358 552 5 0 0 0 - - -;
#X msg 367 603 send /noiseLvl \$1;
#X obj 148 -8 vsl 32 512 10 500 0 0 empty empty OSC02_Frequency 0 -9
0 10 -4033 -1985 -1 24900 1;
#X obj 189 11 vsl 32 512 0 0.5 0 0 empty empty OSC02_Amplitude 0 -9
0 10 -4033 -1793 -1 30100 1;
#X floatatom 145 530 5 0 0 0 - - -;
#X floatatom 187 527 5 0 0 0 - - -;
#X msg 97 570 send /OSC02freq \$1;
#X msg 156 597 send /OSC02ampl \$1;
#X msg 37 616 send /OSC01ampl \$1;
#X msg 10 639 send /OSC01freq \$1;
#X connect 0 0 7 0;
#X connect 1 0 8 0;
#X connect 2 0 3 0;
#X connect 5 0 3 0;
#X connect 6 0 3 0;
#X connect 7 0 22 0;
#X connect 8 0 21 0;
#X connect 9 0 10 0;
#X connect 10 0 11 0;
#X connect 11 0 2 0;
#X connect 12 0 13 0;
#X connect 13 0 14 0;
#X connect 14 0 2 0;
#X connect 15 0 17 0;
#X connect 16 0 18 0;
#X connect 17 0 19 0;
#X connect 18 0 20 0;
#X connect 19 0 2 0;
#X connect 20 0 2 0;
#X connect 21 0 2 0;
#X connect 22 0 2 0;
