#N canvas 487 194 1360 676 10;
#X declare -lib mrpeach;
#X obj 145 52 vsl 32 512 0 0.999 0 0 empty empty Sine 0 -9 0 10 -4033
-1793 -1 51100 1;
#X obj 370 792 packOSC;
#X obj 411 830 udpsend;
#X obj 635 24 import mrpeach;
#X msg 1144 748 disconnect;
#X floatatom 159 586 5 0 0 0 - - -;
#X obj 219 52 vsl 32 512 0.01 0.999 1 0 empty empty Square 0 -9 0 10
-4034 -110593 -1 51100 1;
#X floatatom 233 586 5 0 0 0 - - -;
#X obj 256 52 vsl 32 512 0 0.9 0 0 empty empty Noise 0 -9 0 10 -262081
-145409 -1 0 1;
#X floatatom 270 586 5 0 0 0 - - -;
#X obj 182 52 vsl 32 512 0 0.999 0 0 empty empty Saw 0 -9 0 10 -4033
-1793 -1 51100 1;
#X floatatom 196 586 5 0 0 0 - - -;
#X msg 166 782 send /SineAmpl \$1;
#X msg 194 745 send /SawAmpl \$1;
#X msg 253 706 send /SquareAmpl \$1;
#X msg 317 647 send /NoiseAmpl \$1;
#X obj 371 40 vsl 32 512 0.001 0.9 1 0 empty empty LFO_Q 0 -9 0 10
-258113 -110593 -1 48700 1;
#X floatatom 369 586 5 0 0 0 - - -;
#X msg 1142 712 connect 192.168.23.1 50000;
#X obj 477 52 vsl 32 512 0.5 6.5 1 0 empty empty Filter_Type 0 -9 0
10 -4032 -110593 -1 36500 1;
#X msg 317 623 send /LFO_Q \$1;
#X floatatom 491 586 5 0 0 0 - - -;
#X msg 461 623 send /Filter_Type \$1;
#X obj 581 52 vsl 32 512 0.2 50 1 0 empty empty Filter_Gain 0 -9 0
10 -159808 -110593 -1 50400 1;
#X floatatom 595 586 5 0 0 0 - - -;
#X msg 621 623 send /Filter_Gain \$1;
#X obj 706 63 vsl 32 512 0.1 10 1 0 empty empty LFO_Frequency 0 -9
0 10 -191407 -110593 -1 14900 1;
#X msg 845 683 send /LFO_Freq \$1;
#X floatatom 785 596 5 0 0 0 - - -;
#X obj 1091 138 vradio 30 1 0 4 empty empty LFO_Type 0 -8 0 20 -262144
-1 -1 3;
#X floatatom 926 592 5 0 0 0 - - -;
#X msg 675 764 send /LFO_Type \$1;
#X obj 846 55 vsl 32 512 0.03 3 1 0 empty empty LFO_Type 0 -9 0 20
-261682 -110593 -1 41000 1;
#X obj 1204 318 cnv 15 100 60 empty empty empty 20 12 0 14 -233017
-66577 0;
#X connect 0 0 5 0;
#X connect 1 0 2 0;
#X connect 4 0 2 0;
#X connect 5 0 12 0;
#X connect 6 0 7 0;
#X connect 7 0 14 0;
#X connect 8 0 9 0;
#X connect 9 0 15 0;
#X connect 10 0 11 0;
#X connect 11 0 13 0;
#X connect 12 0 1 0;
#X connect 13 0 1 0;
#X connect 14 0 1 0;
#X connect 15 0 1 0;
#X connect 16 0 17 0;
#X connect 17 0 20 0;
#X connect 18 0 2 0;
#X connect 19 0 21 0;
#X connect 20 0 1 0;
#X connect 21 0 22 0;
#X connect 22 0 1 0;
#X connect 23 0 24 0;
#X connect 24 0 25 0;
#X connect 25 0 1 0;
#X connect 26 0 28 0;
#X connect 27 0 1 0;
#X connect 28 0 27 0;
#X connect 29 0 30 0;
#X connect 30 0 31 0;
#X connect 31 0 1 0;
#X connect 32 0 30 0;
